<?xml version="1.0" standalone="no"?>
<!DOCTYPE svg PUBLIC "-//W3C//DTD SVG 20010904//EN"
 "http://www.w3.org/TR/2001/REC-SVG-20010904/DTD/svg10.dtd">
<svg version="1.0" xmlns="http://www.w3.org/2000/svg"
 width="200.000000pt" height="51.000000pt" viewBox="0 0 200.000000 51.000000"
 preserveAspectRatio="xMidYMid meet">

<g transform="translate(0.000000,51.000000) scale(0.100000,-0.100000)"
fill="#000000" stroke="none">
<path d="M116 453 l-117 -57 3 -144 3 -144 112 -49 112 -48 113 48 113 48 3
144 3 144 -115 57 -114 57 -116 -56z m219 -28 l96 -44 -3 -127 -3 -128 -97
-42 -98 -43 -98 43 -97 42 -3 127 -3 127 93 44 c51 25 98 45 105 45 6 1 55
-19 108 -44z"/>
<path d="M162 406 c-60 -30 -62 -33 -41 -43 18 -7 34 -5 68 10 44 19 44 19 86
-1 34 -16 45 -18 63 -8 21 11 18 14 -43 44 -36 18 -66 32 -68 32 -1 -1 -31
-16 -65 -34z"/>
<path d="M70 250 l0 -99 30 -16 c40 -21 43 -19 25 15 -10 19 -15 49 -13 79 l3
48 45 -21 c43 -20 45 -23 48 -69 3 -43 5 -48 25 -45 18 2 22 10 25 49 3 43 5
47 47 67 l45 22 0 -51 c0 -27 -7 -63 -15 -79 -18 -34 -15 -36 25 -15 l30 16 0
99 c0 55 -2 100 -5 100 -2 0 -38 -17 -80 -37 l-75 -37 -75 37 c-42 20 -78 37
-80 37 -3 0 -5 -45 -5 -100z"/>
<path d="M1848 404 l-28 -15 0 -114 0 -115 30 0 30 0 0 130 c0 72 -1 130 -2
130 -2 -1 -15 -8 -30 -16z"/>
<path d="M1958 402 c-28 -17 -28 -17 -28 -129 l0 -113 35 0 35 0 0 130 c0 72
-3 130 -7 130 -5 0 -20 -8 -35 -18z"/>
<path d="M1294 350 c-30 -45 -39 -48 -56 -20 -9 14 -24 20 -51 20 l-39 0 36
-49 35 -49 -50 -66 -50 -66 39 0 c35 0 42 5 66 41 l28 41 23 -22 c16 -15 33
-20 55 -18 l31 3 -30 40 c-17 22 -31 44 -31 48 0 5 20 35 45 67 25 32 45 61
45 64 0 3 -16 6 -35 6 -29 0 -39 -6 -61 -40z"/>
<path d="M550 255 l0 -95 30 0 c29 0 29 1 32 61 5 112 68 104 68 -8 0 -52 0
-53 30 -53 30 0 30 0 30 59 0 61 16 89 45 77 11 -4 15 -22 15 -71 l0 -65 35 0
35 0 0 73 c0 90 -15 117 -67 117 -20 0 -44 -7 -53 -15 -15 -14 -18 -14 -30 0
-17 20 -69 19 -92 -2 -17 -15 -18 -15 -18 0 0 12 -9 17 -30 17 l-30 0 0 -95z"/>
<path d="M925 325 c-37 -37 -35 -106 4 -146 33 -33 69 -37 106 -13 15 10 25
12 25 5 0 -6 14 -11 30 -11 l30 0 0 95 0 95 -29 0 c-16 0 -31 -6 -34 -12 -4
-10 -7 -10 -18 0 -23 22 -87 15 -114 -13z m113 -37 c7 -7 12 -25 12 -40 0 -54
-79 -61 -93 -9 -11 44 50 80 81 49z"/>
<path d="M1400 255 l0 -95 30 0 c29 0 30 2 30 43 0 55 22 87 61 87 16 0 29 3
29 8 0 4 3 17 6 30 6 19 3 22 -27 22 -18 0 -41 -7 -51 -17 -17 -15 -18 -15
-18 0 0 12 -9 17 -30 17 l-30 0 0 -95z"/>
<path d="M1617 339 c-9 -5 -24 -24 -33 -41 -35 -68 18 -148 98 -148 32 0 47 7
74 34 22 22 34 44 34 60 0 35 -25 83 -49 96 -25 13 -101 13 -124 -1z m97 -55
c9 -8 16 -22 16 -30 0 -16 -35 -54 -50 -54 -15 0 -50 38 -50 54 0 20 28 46 50
46 10 0 26 -7 34 -16z"/>
</g>
</svg>
