<?xml version="1.0" standalone="no"?>
<!DOCTYPE svg PUBLIC "-//W3C//DTD SVG 20010904//EN"
 "http://www.w3.org/TR/2001/REC-SVG-20010904/DTD/svg10.dtd">
<svg version="1.0" xmlns="http://www.w3.org/2000/svg"
 width="500.000000pt" height="500.000000pt" viewBox="0 0 500.000000 500.000000"
 preserveAspectRatio="xMidYMid meet">

<g transform="translate(0.000000,500.000000) scale(0.100000,-0.100000)"
fill="#000000" stroke="none">
<path d="M1380 4395 l-1115 -535 0 -1411 0 -1411 1110 -485 c611 -267 1115
-486 1120 -486 8 0 2046 885 2219 964 l26 12 0 1407 0 1406 -1116 534 c-613
294 -1118 536 -1122 537 -4 1 -509 -238 -1122 -532z m2103 -270 l957 -458 -2
-1215 -3 -1214 -969 -423 -968 -423 -147 64 c-80 35 -515 225 -966 422 l-820
358 0 1218 0 1217 965 463 c607 291 971 460 980 456 8 -4 446 -213 973 -465z"/>
<path d="M1828 3956 l-656 -323 249 -123 250 -123 97 45 c53 25 240 115 414
201 l317 156 407 -200 c223 -109 409 -199 413 -199 5 0 120 54 256 121 173 84
244 124 234 129 -51 29 -1310 640 -1316 639 -4 0 -303 -146 -665 -323z"/>
<path d="M880 2467 l0 -1013 402 -196 c222 -108 404 -195 406 -193 2 2 -76
148 -172 325 l-176 321 0 495 c0 272 2 494 4 494 2 0 201 -96 442 -214 l439
-214 3 -424 3 -423 135 -65 134 -64 130 64 130 64 0 421 0 421 435 212 c238
117 441 215 450 218 13 6 15 -46 14 -487 l0 -494 -178 -325 c-99 -179 -178
-326 -176 -328 1 -1 185 87 408 195 l407 198 0 1013 c0 556 -2 1012 -5 1012
-2 0 -367 -177 -810 -394 l-806 -394 -232 113 c-128 62 -490 239 -806 394
-316 155 -576 281 -578 281 -2 0 -3 -456 -3 -1013z"/>
</g>
</svg>
